<svg width="30" height="30" viewBox="0 0 30 30" fill="none" xmlns="http://www.w3.org/2000/svg">
<path d="M19.705 5C20.4013 5.00002 21.0838 5.19392 21.6762 5.55996C22.2685 5.926 22.7472 6.44974 23.0587 7.0725L24.7875 10.5288C25.0925 10.4038 25.3962 10.2775 25.6912 10.1312C25.9879 9.98306 26.3314 9.95881 26.6459 10.0638C26.9605 10.1688 27.2205 10.3945 27.3687 10.6913C27.5169 10.988 27.5412 11.3314 27.4361 11.646C27.3311 11.9606 27.1054 12.2206 26.8087 12.3688C26.1912 12.6763 25.9087 12.7712 25.9087 12.7712L27.1037 15.1625C27.365 15.6838 27.5 16.2575 27.5 16.84V20C27.5 20.5276 27.3886 21.0493 27.1732 21.5309C26.9578 22.0125 26.6432 22.4433 26.25 22.795V24.375C26.25 24.8723 26.0524 25.3492 25.7008 25.7008C25.3492 26.0525 24.8722 26.25 24.375 26.25C23.8777 26.25 23.4008 26.0525 23.0491 25.7008C22.6975 25.3492 22.5 24.8723 22.5 24.375V23.75H7.49997V24.375C7.49997 24.8723 7.30243 25.3492 6.95079 25.7008C6.59916 26.0525 6.12225 26.25 5.62497 26.25C5.12769 26.25 4.65077 26.0525 4.29914 25.7008C3.94751 25.3492 3.74997 24.8723 3.74997 24.375V22.795C2.98247 22.1075 2.49997 21.11 2.49997 20V16.84C2.5002 16.2581 2.63586 15.6842 2.89622 15.1637L4.09122 12.7712C3.78835 12.6459 3.48907 12.5121 3.19372 12.37C3.04638 12.2969 2.91492 12.1954 2.80686 12.0714C2.69881 11.9474 2.61629 11.8033 2.56403 11.6474C2.51178 11.4914 2.49081 11.3267 2.50234 11.1626C2.51387 10.9985 2.55767 10.8384 2.63122 10.6913C2.78244 10.3958 3.04389 10.1719 3.359 10.0678C3.67411 9.96366 4.01753 9.98781 4.31497 10.135C4.60997 10.2767 4.90914 10.4079 5.21247 10.5288L6.94122 7.0725C7.2527 6.44974 7.73143 5.926 8.32376 5.55996C8.9161 5.19392 9.59866 5.00002 10.295 5H19.705ZM23.5425 13.63C21.4175 14.3013 18.3937 15 15 15C11.6062 15 8.58247 14.3 6.45747 13.63L5.13247 16.28C5.04535 16.4538 4.99998 16.6456 4.99997 16.84V20C4.99997 20.3315 5.13167 20.6495 5.36609 20.8839C5.60051 21.1183 5.91845 21.25 6.24997 21.25H23.75C24.0815 21.25 24.3994 21.1183 24.6339 20.8839C24.8683 20.6495 25 20.3315 25 20V16.84C24.9998 16.646 24.9544 16.4547 24.8675 16.2812L23.5425 13.63ZM9.37497 16.25C9.87225 16.25 10.3492 16.4475 10.7008 16.7992C11.0524 17.1508 11.25 17.6277 11.25 18.125C11.25 18.6223 11.0524 19.0992 10.7008 19.4508C10.3492 19.8025 9.87225 20 9.37497 20C8.87769 20 8.40077 19.8025 8.04914 19.4508C7.69751 19.0992 7.49997 18.6223 7.49997 18.125C7.49997 17.6277 7.69751 17.1508 8.04914 16.7992C8.40077 16.4475 8.87769 16.25 9.37497 16.25ZM20.625 16.25C21.1223 16.25 21.5992 16.4475 21.9508 16.7992C22.3024 17.1508 22.5 17.6277 22.5 18.125C22.5 18.6223 22.3024 19.0992 21.9508 19.4508C21.5992 19.8025 21.1223 20 20.625 20C20.1277 20 19.6508 19.8025 19.2991 19.4508C18.9475 19.0992 18.75 18.6223 18.75 18.125C18.75 17.6277 18.9475 17.1508 19.2991 16.7992C19.6508 16.4475 20.1277 16.25 20.625 16.25ZM19.705 7.5H10.295C10.0629 7.50012 9.83543 7.56485 9.63806 7.68694C9.44069 7.80903 9.28121 7.98365 9.17747 8.19125L7.58997 11.3625C9.52497 11.9438 12.1325 12.5 15 12.5C17.8675 12.5 20.475 11.9438 22.4087 11.3625L20.8225 8.19125C20.7187 7.98365 20.5592 7.80903 20.3619 7.68694C20.1645 7.56485 19.937 7.50012 19.705 7.5Z" fill="black"/>
</svg>
