<svg width="13" height="17" viewBox="0 0 13 17" fill="none" xmlns="http://www.w3.org/2000/svg">
<path d="M0.801636 4.33301H2.0459H12" stroke="#C5C5D1" stroke-width="1.2" stroke-linecap="round" stroke-linejoin="round"/>
<path d="M10.7557 4.33292V14.6301C10.7557 15.0202 10.6246 15.3944 10.3912 15.6703C10.1579 15.9461 9.84141 16.1011 9.51141 16.1011H3.2901C2.9601 16.1011 2.64362 15.9461 2.41027 15.6703C2.17693 15.3944 2.04584 15.0202 2.04584 14.6301V4.33292M3.91223 4.33292V2.8619C3.91223 2.47175 4.04332 2.09759 4.27667 1.82172C4.51001 1.54585 4.82649 1.39087 5.15649 1.39087H7.64502C7.97502 1.39087 8.2915 1.54585 8.52484 1.82172C8.75819 2.09759 8.88928 2.47175 8.88928 2.8619V4.33292" stroke="#C5C5D1" stroke-width="1.2" stroke-linecap="round" stroke-linejoin="round"/>
<path d="M5.15662 8.0105V12.4236" stroke="#C5C5D1" stroke-width="1.2" stroke-linecap="round" stroke-linejoin="round"/>
<path d="M7.64502 8.0105V12.4236" stroke="#C5C5D1" stroke-width="1.2" stroke-linecap="round" stroke-linejoin="round"/>
</svg>
