<svg width="26" height="24" viewBox="0 0 26 24" fill="none" xmlns="http://www.w3.org/2000/svg">
<path d="M9.24852 1.61938H5C3.34315 1.61938 2 2.96253 2 4.61938V19.5C2 21.1569 3.34315 22.5 5 22.5H20.7456C22.4024 22.5 23.7456 21.1569 23.7456 19.5V15.5398" stroke="#171717" stroke-width="1.5" stroke-linecap="round"/>
<path d="M13.0803 16.4153C12.727 16.7546 12.2562 16.9576 11.7573 16.9857L8.20327 17.1861C7.89844 17.2033 7.6463 16.9612 7.6642 16.6685L7.87291 13.2558C7.90221 12.7768 8.11359 12.3247 8.46695 11.9854L17.944 2.88534C18.7407 2.12029 20.0325 2.12029 20.8292 2.88534L22.5573 4.54475C23.3541 5.30979 23.3541 6.55017 22.5573 7.31522L13.0803 16.4153Z" stroke="#171717" stroke-width="1.5"/>
</svg>
